PathFileType	4	(X/Y/Z)	DARI_DATA/Captury_Subj7_bilateral_squat01.trc
DataRate	CameraRate	NumFrames	NumMarkers	Units	OrigDataRate	OrigDataStartFrame	OrigNumFrames
60	60	8	47	mm	60.00239944458008	90	357
Frame#	Time		LeftUpLeg_		RightUpLeg_		LeftLeg_		RightLeg_		LeftFoot_		RightFoot_		LeftToeBase_		RightToeBase_		Knee_Lateral_r		Knee_Lateral_l		Ankle_Lateral_r		Ankle_Lateral_l		LeftArm_		LeftForeArm_		LeftHand_		LeftHandEE		RightArm_		RightForeArm_		RightHand_		RightHandEE		Spine_		Spine1_		Spine2_		Spine3_		Spine4_		Spine5_		Spine_x		Spine_y		Spine_z		RASI		LASI		RIPS		LIPS		RTHI		LTHI		RTIB		LTIB		RTOE		LTOE		RHEE		LHEE		RHipAngles		LHipAngles		RKneeAngles		LKneeAngles		RAnkleAngles		LAnkleAngles
			X1	Y1	Z1	X2	Y2	Z2	X3	Y3	Z3	X4	Y4	Z4	X5	Y5	Z5	X6	Y6	Z6	X7	Y7	Z7	X8	Y8	Z8	X9	Y9	Z9	X10	Y10	Z10	X11	Y11	Z11	X12	Y12	Z12	X13	Y13	Z13	X14	Y14	Z14	X15	Y15	Z15	X16	Y16	Z16	X17	Y17	Z17	X18	Y18	Z18	X19	Y19	Z19	X20	Y20	Z20	X21	Y21	Z21	X22	Y22	Z22	X23	Y23	Z23	X24	Y24	Z24	X25	Y25	Z25	X26	Y26	Z26	X27	Y27	Z27	X28	Y28	Z28	X29	Y29	Z29	X30	Y30	Z30	X31	Y31	Z31	X32	Y32	Z32	X33	Y33	Z33	X34	Y34	Z34	X35	Y35	Z35	X36	Y36	Z36	X37	Y37	Z37	X38	Y38	Z38	X39	Y39	Z39	X40	Y40	Z40	X41	Y41	Z41	X42	Y42	Z42	X43	Y43	Z43	X44	Y44	Z44	X45	Y45	Z45	X46	Y46	Z46	X47	Y47	Z47

90	1.48333	-135.17514	786.62598	123.26401	40.67929	791.22717	124.60590	-303.73553	464.25272	-101.61253	197.30789	461.33389	-97.97991	-275.87164	89.84406	20.26575	185.28282	91.91055	40.56374	-317.36890	28.91262	-95.07543	217.70596	30.43603	-77.36787	241.66202	465.20020	-77.30576	-346.36780	466.31146	-77.36571	222.20157	97.00587	78.06370	-309.58875	93.46959	60.82703	-187.99683	1267.19067	-62.24654	-303.40662	1283.18945	-341.89520	-358.11148	1302.38049	-593.89624	-366.46130	1325.17078	-685.09161	93.38588	1253.59949	-53.89132	197.70691	1268.35242	-337.93051	222.50319	1294.76404	-593.96375	232.81979	1309.13855	-686.66034	-49.89738	885.56189	139.79184	-51.27501	982.30865	103.42590	-51.56996	1057.06140	93.79510	-51.19874	1153.01648	92.69186	-47.79309	1276.76465	27.21105	-0.00000	0.00000	-0.00000	-0.76505	886.84741	140.16675	-51.16846	934.66345	138.00299	-50.31871	887.34039	188.90842	99.27343	855.68921	24.11008	-195.52051	847.97595	21.86060	-10.08166	858.19647	170.63503	-88.69337	856.13965	170.03516	173.88580	642.87897	53.29198	-271.26227	639.12988	55.72113	234.12839	293.74808	-33.18748	-328.46326	236.29979	-28.44027	240.52119	15.56887	-149.57741	-346.58026	17.47957	-165.58621	159.75522	29.43140	91.33069	-245.54355	27.26873	68.19408	-41.46606	17.78311	17.40741	-45.85101	23.13573	20.12301	-52.45962	-0.55481	-1.51500	-52.67914	-0.24786	-1.18423	-8.71097	-5.75703	-10.05499	-7.02200	-5.74020	-9.10888
91	1.50000	-134.07770	777.51923	125.75645	41.74789	782.70435	128.24995	-306.27893	462.46619	-106.61151	200.98193	459.36069	-101.96719	-275.49738	89.98401	20.36131	184.50740	91.67630	40.68393	-317.02292	29.04094	-94.96349	217.41238	30.42683	-77.23132	245.24048	462.94702	-81.03929	-348.89539	464.45551	-82.33113	221.26312	96.52740	78.37592	-309.19324	93.61201	60.93998	-188.09219	1255.22754	-63.70678	-302.93768	1272.08179	-343.53754	-357.91623	1291.32654	-595.47498	-365.88309	1314.39087	-686.63574	93.46621	1241.67334	-55.02931	197.01636	1257.41248	-339.29755	222.70456	1283.96448	-595.22833	233.18207	1297.89478	-687.97467	-49.23657	876.78009	142.58060	-50.69034	972.95911	105.55769	-51.16898	1047.31909	95.25541	-51.07541	1142.96863	93.03472	-47.81707	1265.48560	25.89273	-0.00000	0.00000	-0.00000	-0.11230	878.22876	143.27727	-50.65692	925.87219	140.65048	-49.98929	878.68903	191.68831	100.79500	847.08942	27.97014	-193.95064	838.39734	23.79015	-9.53658	849.62915	173.76062	-88.13541	847.31122	172.64595	176.02264	636.91907	53.72626	-271.84274	633.23511	54.76549	235.77014	292.16974	-35.06584	-329.23010	235.36110	-30.29183	240.55222	15.79703	-149.38603	-346.28326	17.68315	-165.46609	158.72870	29.10625	91.21149	-245.10347	27.42160	68.26477	-43.06465	17.78286	17.24050	-47.64951	24.03548	19.73868	-54.73075	-0.45283	-1.53916	-55.06947	-0.14740	-1.18152	-9.61541	-5.76336	-9.87085	-7.91025	-5.74140	-9.14333
92	1.51667	-133.13503	768.30688	128.71930	42.68018	773.63354	131.61461	-308.34644	461.01395	-111.65242	204.07990	457.07697	-106.39513	-275.47995	90.46536	20.35553	184.98616	91.48227	41.21411	-316.71564	29.30984	-94.96086	217.76492	30.36406	-76.80437	248.36790	460.57901	-85.51534	-351.02081	462.94778	-87.46947	221.80298	96.25105	78.85696	-309.27280	94.16727	60.84679	-188.04813	1243.31934	-65.20009	-302.75058	1260.66113	-345.05969	-357.01340	1279.97937	-597.14661	-364.94424	1303.84998	-688.10266	93.81591	1230.33582	-56.00938	196.29834	1246.32800	-340.65018	222.47929	1272.18811	-596.60187	233.68547	1287.03442	-689.12067	-48.40807	867.69647	145.35786	-49.88956	963.33032	107.65802	-50.50471	1037.32837	96.70457	-50.69357	1132.69434	93.44000	-47.77676	1254.07153	24.78067	-0.00000	0.00000	-0.00000	0.71330	869.18469	146.16679	-49.86012	916.77954	143.23192	-49.28026	869.79724	194.45578	101.92054	837.66937	31.22523	-192.80771	828.74011	26.37166	-8.76307	840.69763	176.73932	-87.35727	838.31653	175.44502	178.01703	630.79706	53.39368	-272.39880	627.45648	53.86208	237.67725	290.55179	-37.26190	-330.02332	234.81010	-32.34225	240.79890	15.86525	-149.01938	-345.83307	17.96576	-165.52484	159.40475	28.83727	91.74907	-245.18143	27.99513	68.43939	-44.66544	17.95108	16.75323	-49.38719	24.52069	19.11378	-57.01931	-0.39935	-1.55651	-57.45211	-0.01785	-1.16236	-10.55372	-5.76978	-9.72662	-8.66285	-5.74146	-9.15943
93	1.53333	-132.57195	759.41321	131.35158	43.24521	764.76892	134.07019	-310.68918	459.66043	-116.29561	207.60492	454.93771	-110.66862	-275.32367	90.99625	20.26428	185.16902	91.31473	41.27728	-316.23691	29.47682	-94.97334	218.06244	30.45385	-76.84222	251.87041	458.43515	-89.74037	-353.42480	461.59564	-92.22114	221.94243	95.91805	78.98309	-309.19348	94.72998	60.68825	-187.86191	1231.25525	-66.18903	-302.40521	1249.16418	-346.07806	-355.80560	1268.50696	-598.34723	-363.18204	1293.25562	-689.11511	94.28687	1218.89050	-57.20617	195.93262	1235.27246	-342.12469	222.11897	1260.62781	-598.12634	233.89581	1275.06580	-690.63885	-47.84626	858.79498	148.04274	-49.37549	953.95972	109.94922	-50.02294	1027.57874	98.45567	-50.25706	1122.62195	94.14410	-47.46432	1242.71973	23.84532	-0.00000	0.00000	-0.00000	1.27565	860.29132	148.80229	-49.30976	907.88080	145.98816	-48.66737	860.82574	197.14447	102.36824	828.95874	33.71001	-192.36327	819.98059	29.15266	-8.16330	831.75903	179.34416	-86.75836	829.36487	178.12888	179.93459	624.96826	52.77675	-273.29230	621.97986	52.95067	239.67419	288.98572	-39.46236	-330.83762	234.28844	-34.26093	241.19040	16.21479	-149.07886	-345.23117	18.00911	-165.56804	159.51796	28.56245	91.64359	-244.97736	28.70539	68.55030	-45.93514	18.40617	16.43248	-50.63601	24.81600	18.36720	-59.18603	-0.52369	-1.58503	-59.71016	-0.04623	-1.13238	-11.47996	-5.77593	-9.63699	-9.29734	-5.74056	-9.16468
94	1.55000	-132.05217	750.63477	133.79132	43.77042	755.57349	136.91843	-313.00244	458.43094	-120.72874	211.28935	452.85379	-114.48715	-275.27963	91.61365	20.10669	185.44336	91.06677	41.25188	-315.91626	29.62251	-94.97589	218.69301	30.53943	-76.93928	255.47023	456.22238	-93.35992	-355.78638	460.36929	-96.74052	222.09048	95.49883	79.10089	-309.20813	95.40101	60.47642	-187.57156	1218.87927	-66.98358	-302.06378	1237.43457	-346.85141	-354.00528	1257.18835	-599.39313	-361.46191	1282.34143	-690.04321	94.78054	1207.25281	-58.20544	194.94482	1223.69983	-343.64435	221.94897	1248.87622	-599.57861	233.96016	1263.43433	-692.04211	-47.13084	849.80536	150.74260	-48.44131	944.51587	112.21770	-49.09071	1017.77734	100.17308	-49.49587	1112.51245	94.82386	-47.04770	1231.36035	22.93257	-0.00000	0.00000	-0.00000	1.99259	851.18518	151.61629	-48.47373	898.89581	148.71677	-48.06033	851.80621	199.84363	103.27596	819.68860	36.73669	-191.46460	811.40955	31.49458	-7.58405	822.65546	182.11766	-86.18154	820.44775	180.71977	181.80719	618.81097	52.78335	-274.17633	616.62756	52.06235	241.79276	287.44043	-41.36552	-331.70746	233.88876	-36.11728	242.06519	16.57479	-149.15089	-344.82324	17.98999	-165.57941	159.58894	28.17958	91.34515	-244.85762	29.54995	68.63693	-47.37066	18.88231	16.07156	-51.92051	25.15723	17.88381	-61.33253	-0.48420	-1.63271	-61.88759	-0.07181	-1.10619	-12.35863	-5.78184	-9.59104	-9.83535	-5.73944	-9.15635
95	1.56667	-131.23383	741.60425	136.35414	44.58785	746.54767	139.52478	-315.29205	457.29953	-124.79707	215.10199	450.74496	-118.02567	-275.17432	92.21402	19.82568	185.56773	90.72437	41.11417	-315.65167	29.71091	-95.03590	219.07080	30.49514	-77.15767	259.20303	453.99396	-96.71371	-358.09680	459.24829	-100.84684	222.09668	94.93877	79.10202	-309.11893	96.04571	60.17769	-187.44104	1206.52112	-67.37070	-301.49753	1225.77087	-347.36951	-352.31134	1246.14954	-600.09094	-359.16690	1270.45703	-691.01874	95.17388	1195.81116	-59.45869	194.60980	1212.07068	-345.16290	221.95073	1236.89661	-601.09570	233.48428	1251.69006	-693.58270	-46.31863	840.78510	153.27625	-47.64216	934.98773	114.31172	-48.34769	1007.85236	101.75871	-48.86538	1102.23621	95.48141	-46.67663	1219.86890	22.18887	-0.00000	0.00000	-0.00000	2.80454	842.16626	154.16209	-47.66183	889.87445	151.22459	-47.26103	842.81140	202.37598	104.11856	810.61182	39.32542	-190.62048	802.32495	34.01031	-6.77961	813.65216	184.67575	-85.37669	811.44232	183.25839	183.90350	612.75085	52.76999	-274.84912	611.19482	51.47265	243.90939	285.80243	-43.17303	-332.53027	233.52933	-37.86078	242.66660	16.80497	-149.34911	-344.54373	17.88558	-165.61349	159.41100	27.73749	90.92445	-244.62579	30.39619	68.58973	-48.78202	19.31561	15.88344	-53.30222	25.54861	17.23547	-63.37410	-0.52011	-1.69389	-64.02870	-0.12520	-1.09106	-13.17704	-5.78744	-9.56889	-10.28597	-5.73867	-9.12000
96	1.58333	-130.59090	732.20117	139.28854	45.23825	736.80743	142.55217	-317.81717	456.24677	-128.48386	219.10553	448.85181	-121.56584	-275.13818	92.75839	19.39191	185.40277	90.63376	40.78098	-315.52838	29.69909	-95.19605	219.32153	30.57359	-77.45834	263.07990	451.87112	-99.96040	-360.61768	458.15808	-104.52302	221.74307	94.62645	78.97315	-309.06299	96.60810	59.75886	-187.11916	1193.99866	-67.52802	-300.75641	1213.93762	-347.64905	-350.44745	1235.11194	-600.52826	-356.89539	1258.51453	-691.72284	95.61593	1184.38171	-60.43478	194.48163	1200.39587	-346.35068	221.97818	1224.71411	-602.31555	232.83801	1239.80591	-694.83594	-45.48711	831.29974	155.73892	-46.67331	925.04962	116.14212	-47.38292	997.63812	103.04574	-48.02305	1091.79382	95.96229	-46.17714	1208.53076	21.57244	-0.00000	0.00000	-0.00000	3.63815	832.58667	156.65074	-46.72990	880.38007	153.42448	-46.45823	833.58990	204.82651	104.96504	800.21588	42.05286	-189.78651	792.49432	36.58191	-6.02390	804.25519	187.30959	-84.62431	802.19611	185.85066	185.92645	606.24561	53.12460	-275.68762	605.52979	51.32185	245.98924	284.37576	-44.99097	-333.48633	233.16353	-39.50913	243.26630	17.07161	-149.57025	-344.46024	17.63090	-165.71622	158.77452	27.61704	90.30286	-244.38695	31.21394	68.37381	-50.69791	19.88281	15.71749	-55.02303	25.89958	16.73009	-65.57294	-0.45220	-1.75390	-66.16070	-0.16372	-1.08106	-13.92714	-5.79245	-9.55843	-10.64649	-5.73820	-9.06210
97	1.60000	-130.14330	722.96283	141.94402	45.69107	727.00513	145.64360	-320.45932	455.18106	-131.87944	222.94585	447.10907	-124.81065	-275.15680	93.21677	18.92554	185.22566	90.58038	40.34705	-315.52225	29.50480	-95.30955	219.59293	30.65708	-77.83217	266.78903	449.88858	-102.90843	-363.23300	457.03015	-107.86590	221.36276	94.36333	78.75279	-309.02573	97.09214	59.33691	-186.71408	1181.91858	-67.66158	-299.83755	1202.01416	-347.97931	-348.82349	1223.43567	-600.97522	-354.24048	1246.93933	-692.21088	96.19988	1172.67334	-61.21569	194.49423	1188.35437	-347.34702	221.52670	1212.30212	-603.39624	233.21057	1228.12903	-695.69312	-44.75966	821.81860	158.40485	-45.65301	915.20398	118.28476	-46.32000	987.55359	104.63505	-47.08587	1081.50391	96.61652	-45.56090	1197.21899	20.88602	-0.00000	0.00000	-0.00000	4.36707	822.94800	159.43849	-45.83704	870.89777	155.98570	-45.84739	824.21393	207.48495	105.87749	790.01050	45.16499	-188.88286	783.23425	38.96314	-5.46449	794.71179	190.13132	-84.06725	792.90479	188.47748	187.76163	599.76343	53.65257	-276.65039	599.91663	51.21286	247.97021	283.07037	-46.68312	-334.52078	232.74911	-41.02519	243.91104	17.32010	-149.84979	-344.55905	17.16395	-165.73932	158.09662	27.55138	89.58064	-244.11139	31.99907	68.13086	-52.42510	20.41310	15.41480	-56.53659	26.30387	16.42300	-67.71371	-0.37046	-1.79368	-68.19059	-0.18497	-1.06850	-14.59984	-5.79619	-9.56171	-10.91598	-5.73767	-9.01399
